<svg width="100" height="18" viewBox="0 0 100 18" fill="none" xmlns="http://www.w3.org/2000/svg">
<path d="M4.84374 17.4871V4.29601H0.761963V0.637343H13.2064V4.29601H9.27396V17.4871H4.84374Z" fill="#332E32"/>
<path d="M18.7817 17.7858C17.3547 17.7858 16.185 17.5618 15.2724 17.1138C14.3598 16.6658 13.6795 15.9523 13.2315 14.9733C12.8001 13.9944 12.5844 12.725 12.5844 11.1653C12.5844 9.62223 12.8084 8.37779 13.2564 7.43201C13.7044 6.48623 14.3847 5.78934 15.2973 5.34134C16.2265 4.89334 17.3879 4.66934 18.7817 4.66934C20.1755 4.66934 21.3287 4.89334 22.2413 5.34134C23.1539 5.78934 23.8342 6.48623 24.2822 7.43201C24.7302 8.37779 24.9542 9.62223 24.9542 11.1653C24.9542 12.725 24.7385 13.9944 24.307 14.9733C23.8756 15.9523 23.2036 16.6658 22.291 17.1138C21.3785 17.5618 20.2087 17.7858 18.7817 17.7858ZM18.7817 14.2765C19.2961 14.2765 19.6777 14.1769 19.9266 13.9778C20.1921 13.7787 20.3746 13.4468 20.4742 12.9822C20.5737 12.5176 20.6235 11.912 20.6235 11.1653C20.6235 10.4021 20.5654 9.80475 20.4493 9.37334C20.3331 8.94194 20.1423 8.63497 19.8768 8.45245C19.6279 8.25334 19.2629 8.15379 18.7817 8.15379C18.3005 8.15379 17.9272 8.25334 17.6617 8.45245C17.3962 8.63497 17.2054 8.95023 17.0893 9.39823C16.9731 9.82964 16.915 10.4187 16.915 11.1653C16.915 11.912 16.9648 12.5176 17.0644 12.9822C17.1639 13.4468 17.3465 13.7787 17.6119 13.9778C17.8774 14.1769 18.2673 14.2765 18.7817 14.2765Z" fill="#332E32"/>
<path d="M26.7187 17.4871V0.637343H33.4387C34.8159 0.637343 35.9857 0.811566 36.9481 1.16001C37.9104 1.50845 38.682 2.03112 39.2627 2.72801C39.8601 3.40831 40.2915 4.26283 40.557 5.29157C40.8224 6.30371 40.9552 7.47349 40.9552 8.8009C40.9552 10.1449 40.8307 11.3479 40.5819 12.4098C40.333 13.4717 39.9264 14.3843 39.3623 15.1476C38.7981 15.9108 38.0432 16.4916 37.0974 16.8898C36.1516 17.288 34.9901 17.4871 33.613 17.4871H26.7187ZM31.149 13.8285H33.2894C33.9863 13.8285 34.5421 13.704 34.957 13.4551C35.3884 13.2062 35.7119 12.8578 35.9276 12.4098C36.1433 11.9618 36.2844 11.4308 36.3507 10.8169C36.4171 10.203 36.4503 9.53097 36.4503 8.8009C36.4503 8.10401 36.4088 7.48179 36.3259 6.93423C36.2429 6.37008 36.0936 5.8889 35.8779 5.49068C35.6621 5.09245 35.3469 4.79379 34.9321 4.59468C34.5173 4.39557 33.9697 4.29601 33.2894 4.29601H31.149V13.8285Z" fill="#332E32"/>
<path d="M48.556 17.7858C47.1291 17.7858 45.9593 17.5618 45.0467 17.1138C44.1341 16.6658 43.4538 15.9523 43.0058 14.9733C42.5744 13.9944 42.3587 12.725 42.3587 11.1653C42.3587 9.62223 42.5827 8.37779 43.0307 7.43201C43.4787 6.48623 44.159 5.78934 45.0716 5.34134C46.0008 4.89334 47.1622 4.66934 48.556 4.66934C49.9498 4.66934 51.103 4.89334 52.0156 5.34134C52.9282 5.78934 53.6085 6.48623 54.0565 7.43201C54.5045 8.37779 54.7285 9.62223 54.7285 11.1653C54.7285 12.725 54.5128 13.9944 54.0814 14.9733C53.6499 15.9523 52.9779 16.6658 52.0654 17.1138C51.1528 17.5618 49.983 17.7858 48.556 17.7858ZM48.556 14.2765C49.0704 14.2765 49.452 14.1769 49.7009 13.9778C49.9664 13.7787 50.1489 13.4468 50.2485 12.9822C50.348 12.5176 50.3978 11.912 50.3978 11.1653C50.3978 10.4021 50.3397 9.80475 50.2236 9.37334C50.1074 8.94194 49.9166 8.63497 49.6511 8.45245C49.4022 8.25334 49.0372 8.15379 48.556 8.15379C48.0748 8.15379 47.7015 8.25334 47.436 8.45245C47.1705 8.63497 46.9797 8.95023 46.8636 9.39823C46.7474 9.82964 46.6894 10.4187 46.6894 11.1653C46.6894 11.912 46.7391 12.5176 46.8387 12.9822C46.9382 13.4468 47.1208 13.7787 47.3862 13.9778C47.6517 14.1769 48.0416 14.2765 48.556 14.2765Z" fill="#332E32"/>
<path d="M62.0347 17.4871V0.637343H66.4649V13.8285H72.6374V17.4871H62.0347Z" fill="#332E32"/>
<path d="M73.9901 17.4871V4.96801H78.2461V17.4871H73.9901ZM73.9652 3.47468V0.214233H78.271V3.47468H73.9652Z" fill="#332E32"/>
<path d="M85.3591 17.7858C84.6788 17.7858 83.9985 17.7526 83.3182 17.6862C82.6545 17.6199 82.0406 17.5452 81.4764 17.4622C80.9289 17.3627 80.4809 17.2714 80.1324 17.1885L80.2569 14.1769C80.6883 14.2267 81.1778 14.2848 81.7253 14.3511C82.2895 14.4175 82.837 14.4756 83.368 14.5253C83.9155 14.5585 84.3635 14.5751 84.712 14.5751C85.0936 14.5751 85.4006 14.5502 85.6329 14.5005C85.8818 14.4507 86.0643 14.3594 86.1804 14.2267C86.2966 14.0939 86.3547 13.9197 86.3547 13.704C86.3547 13.5215 86.2883 13.3805 86.1555 13.2809C86.0394 13.1813 85.8154 13.0901 85.4835 13.0071C85.1517 12.9242 84.6622 12.8412 84.0151 12.7582C83.0859 12.6255 82.3227 12.4264 81.7253 12.1609C81.1446 11.8788 80.7132 11.4806 80.4311 10.9662C80.1656 10.4519 80.0329 9.77157 80.0329 8.92534C80.0329 7.81364 80.2652 6.95083 80.7298 6.3369C81.1944 5.72297 81.8166 5.29157 82.5964 5.04268C83.3929 4.79379 84.2723 4.66934 85.2347 4.66934C85.8984 4.66934 86.5538 4.70253 87.2009 4.7689C87.8646 4.81868 88.4702 4.89334 89.0178 4.9929C89.5819 5.07586 90.0382 5.15883 90.3867 5.24179L90.2622 8.3529C89.8308 8.30312 89.333 8.25334 88.7689 8.20357C88.2047 8.1372 87.6572 8.08742 87.1262 8.05423C86.5953 8.02105 86.1473 8.00446 85.7822 8.00446C85.4835 8.00446 85.2181 8.02934 84.9858 8.07912C84.7701 8.1289 84.6041 8.21186 84.488 8.32801C84.3718 8.42757 84.3138 8.5769 84.3138 8.77601C84.3138 8.92534 84.3635 9.04979 84.4631 9.14934C84.5792 9.2489 84.795 9.34016 85.1102 9.42312C85.4255 9.48949 85.8901 9.56416 86.504 9.64712C87.5161 9.77986 88.3292 9.98727 88.9431 10.2693C89.557 10.5514 89.9967 10.9579 90.2622 11.4889C90.5277 12.0033 90.6604 12.7002 90.6604 13.5796C90.6604 14.6083 90.453 15.4296 90.0382 16.0436C89.64 16.6575 89.0427 17.1055 88.2462 17.3876C87.4664 17.653 86.504 17.7858 85.3591 17.7858Z" fill="#332E32"/>
<path d="M96.9684 17.7858C96.0226 17.7858 95.2511 17.6613 94.6537 17.4125C94.0564 17.147 93.625 16.6907 93.3595 16.0436C93.094 15.3799 92.9613 14.459 92.9613 13.2809V8.45245H91.7169V4.96801H92.9613V2.00623H97.2422V4.96801H99.9302V8.45245H97.2422V12.2356C97.2422 12.7168 97.2671 13.0984 97.3169 13.3805C97.3666 13.6459 97.4745 13.8368 97.6404 13.9529C97.8063 14.0525 98.0552 14.1022 98.3871 14.1022C98.47 14.1022 98.6111 14.1022 98.8102 14.1022C99.0093 14.0856 99.2167 14.0773 99.4324 14.0773C99.6481 14.0608 99.8057 14.0442 99.9053 14.0276L99.98 17.4125C99.7145 17.4622 99.3909 17.512 99.0093 17.5618C98.6443 17.6282 98.2792 17.6779 97.9142 17.7111C97.5491 17.7609 97.2339 17.7858 96.9684 17.7858Z" fill="#332E32"/>
</svg>
